<?xml version="1.0" standalone="no"?>
<!DOCTYPE svg PUBLIC "-//W3C//DTD SVG 20010904//EN"
 "http://www.w3.org/TR/2001/REC-SVG-20010904/DTD/svg10.dtd">
<svg version="1.0" xmlns="http://www.w3.org/2000/svg"
 width="260.000000pt" height="260.000000pt" viewBox="0 0 260.000000 260.000000"
 preserveAspectRatio="xMidYMid meet">
<metadata>
Created by potrace 1.14, written by Peter Selinger 2001-2017
</metadata>
<g transform="translate(0.000000,260.000000) scale(0.100000,-0.100000)"
fill="#000000" stroke="none">
<path d="M584 2433 c-7 -5 -102 -189 -213 -411 -170 -340 -199 -406 -190 -423
13 -25 32 -33 62 -25 18 4 60 81 220 399 108 217 197 403 197 413 0 10 -4 24
-8 31 -9 15 -54 25 -68 16z"/>
<path d="M1162 2315 c-12 -26 -27 -130 -31 -217 -1 -15 -5 -16 -28 -7 -46 17
-130 12 -177 -10 -162 -79 -231 -325 -125 -445 60 -69 162 -82 267 -36 l42 19
0 -53 c0 -39 5 -57 18 -69 40 -37 52 -16 51 86 -1 50 3 73 15 86 19 21 21 55
3 69 -8 7 -12 30 -10 64 1 29 5 101 7 159 5 95 15 195 33 313 4 31 2 42 -13
53 -26 19 -39 16 -52 -12z m-50 -321 c9 -3 15 -10 12 -17 -4 -10 -10 -117 -13
-210 -1 -24 -10 -32 -73 -62 -85 -41 -148 -46 -188 -15 -22 16 -25 27 -25 77
0 69 19 112 76 171 59 60 133 80 211 56z"/>
<path d="M1565 2136 c-56 -26 -100 -64 -135 -116 -13 -19 -34 -46 -47 -59 -16
-15 -22 -29 -17 -40 3 -9 6 -20 6 -26 0 -5 -2 -37 -5 -69 -18 -264 240 -356
442 -157 77 76 95 129 55 158 -27 20 -54 16 -63 -9 -14 -36 -101 -117 -155
-145 -134 -68 -228 7 -197 157 l7 34 56 -3 c71 -3 129 12 194 51 60 36 74 56
79 112 10 117 -94 170 -220 112z m145 -77 c0 -38 -138 -115 -190 -107 -21 3
-20 5 14 41 21 20 54 46 74 57 41 21 102 27 102 9z"/>
<path d="M1970 2089 c0 -23 32 -155 56 -234 28 -89 78 -179 126 -227 48 -49
65 -52 96 -21 29 28 207 426 204 457 -3 43 -65 63 -78 24 -4 -13 -19 -50 -34
-83 -15 -33 -33 -76 -41 -95 -8 -19 -35 -77 -60 -128 l-46 -94 -26 33 c-35 47
-60 109 -101 251 -20 67 -41 125 -48 130 -24 15 -48 9 -48 -13z"/>
<path d="M589 1103 c-9 -2 -37 -48 -63 -101 -26 -53 -116 -234 -200 -401 -105
-208 -151 -311 -148 -327 5 -29 51 -47 75 -29 21 15 407 786 407 813 0 23 -25
53 -43 51 -7 -1 -19 -3 -28 -6z"/>
<path d="M958 757 c-48 -40 -63 -98 -39 -154 19 -47 102 -73 160 -51 26 9 61
44 62 62 0 6 2 19 4 29 6 33 -16 86 -46 111 -40 34 -103 35 -141 3z"/>
<path d="M2182 764 c-67 -47 -71 -170 -6 -205 14 -7 46 -13 73 -13 72 0 122
45 116 104 -1 14 -3 33 -4 44 0 10 -16 33 -35 52 -28 28 -41 34 -78 34 -24 0
-54 -7 -66 -16z"/>
<path d="M1393 762 c-32 -20 -61 -151 -56 -257 4 -121 42 -196 130 -256 94
-65 181 -38 251 80 l20 33 16 -34 c19 -39 80 -108 96 -108 28 0 21 38 -20 114
l-44 80 3 108 c2 139 -16 212 -59 226 -21 8 -30 7 -33 -1 -5 -15 -1 -121 7
-180 8 -56 -16 -126 -65 -186 -35 -45 -86 -81 -112 -81 -24 0 -82 55 -103 98
-30 61 -15 252 22 283 41 34 -8 110 -53 81z"/>
</g>
</svg>
